<svg width="180" height="50" viewBox="0 0 119 34" fill="none" xmlns="http://www.w3.org/2000/svg">
<path d="M15.9982 2C12.4489 2.00041 9.00056 3.18092 6.19572 5.35579C3.39088 7.53065 1.3888 10.5764 0.504538 14.0137C-0.379729 17.451 -0.0959844 21.0848 1.31112 24.3432C2.71823 27.6016 5.16881 30.2997 8.27724 32.0128C11.3857 33.7259 14.9755 34.3569 18.4818 33.8063C21.9881 33.2558 25.2118 31.5551 27.6456 28.9717C30.0795 26.3884 31.5853 23.0692 31.9261 19.5363C32.2669 16.0035 31.4233 12.4576 29.5282 9.45666C29.8373 8.9108 29.9992 8.29397 29.9982 7.66666C29.9982 6.6942 29.6118 5.76157 28.9242 5.07394C28.2366 4.38631 27.304 4 26.3315 4C25.7031 4.00074 25.0859 4.16624 24.5415 4.48C21.9864 2.86016 19.0235 2.00007 15.9982 2V2ZM15.9982 4C18.4969 3.99566 20.9507 4.66466 23.1015 5.93666C22.8139 6.46786 22.6638 7.0626 22.6648 7.66666C22.6648 8.63912 23.0511 9.57175 23.7388 10.2594C24.4264 10.947 25.359 11.3333 26.3315 11.3333C26.939 11.3364 27.5374 11.1862 28.0715 10.8967C29.6376 13.5565 30.2808 16.6592 29.901 19.7224C29.5213 22.7855 28.1399 25.6373 25.9717 27.8342C23.8036 30.0311 20.9702 31.4498 17.9123 31.8698C14.8544 32.2898 11.7434 31.6874 9.06326 30.1564C6.38311 28.6254 4.28404 26.2516 3.09255 23.4043C1.90105 20.5569 1.68393 17.3956 2.47496 14.4121C3.26599 11.4286 5.02081 8.79011 7.46649 6.90708C9.91216 5.02405 12.9116 4.00203 15.9982 4V4ZM15.9982 8.33333C14.3363 8.33294 12.7023 8.76103 11.2541 9.57625C9.80586 10.3915 8.59227 11.5663 7.73048 12.9873C6.86869 14.4083 6.38782 16.0275 6.33428 17.6886C6.28074 19.3496 6.65635 20.9964 7.42484 22.47C7.1443 22.9309 6.99664 23.4604 6.99817 24C6.99817 24.7956 7.31425 25.5587 7.87685 26.1213C8.43946 26.6839 9.20252 27 9.99817 27C10.5375 27 11.0666 26.8524 11.5282 26.5733C12.8274 27.25 14.2633 27.6226 15.7276 27.663C17.1919 27.7033 18.6463 27.4103 19.9807 26.8062C21.3152 26.202 22.4949 25.3025 23.4307 24.1755C24.3666 23.0485 25.034 21.7236 25.3827 20.3009C25.7314 18.8781 25.7521 17.3947 25.4434 15.9628C25.1347 14.5308 24.5046 13.1877 23.6006 12.035C22.6967 10.8823 21.5427 9.95009 20.2256 9.30882C18.9086 8.66754 17.463 8.33398 15.9982 8.33333V8.33333ZM15.9982 10.3333C17.1429 10.3326 18.2733 10.5883 19.3063 11.0815C20.3393 11.5748 21.2488 12.2931 21.9679 13.1838C22.687 14.0744 23.1976 15.1148 23.4621 16.2286C23.7265 17.3424 23.7383 18.5012 23.4964 19.6201C23.2544 20.739 22.7651 21.7895 22.0641 22.6945C21.3631 23.5996 20.4684 24.3361 19.4456 24.8502C18.4227 25.3642 17.2978 25.6427 16.1533 25.6652C15.0087 25.6876 13.8737 25.4535 12.8315 24.98C13.0146 24.4484 13.0446 23.8762 12.9181 23.3284C12.7917 22.7806 12.5138 22.2794 12.1163 21.8819C11.7188 21.4843 11.2176 21.2065 10.6698 21.08C10.122 20.9536 9.54972 20.9836 9.01817 21.1667C8.48862 19.999 8.26033 18.7173 8.35421 17.4386C8.44808 16.16 8.86111 14.9253 9.55551 13.8476C10.2499 12.7698 11.2035 11.8834 12.329 11.2695C13.4546 10.6556 14.7161 10.3337 15.9982 10.3333V10.3333ZM15.9982 14C15.207 14 14.4337 14.2346 13.7759 14.6741C13.1181 15.1136 12.6054 15.7384 12.3027 16.4693C11.9999 17.2002 11.9207 18.0044 12.075 18.7803C12.2294 19.5563 12.6103 20.269 13.1697 20.8284C13.7292 21.3878 14.4419 21.7688 15.2178 21.9231C15.9937 22.0775 16.798 21.9983 17.5289 21.6955C18.2598 21.3928 18.8845 20.8801 19.324 20.2223C19.7636 19.5645 19.9982 18.7911 19.9982 18C19.9982 16.9391 19.5767 15.9217 18.8266 15.1716C18.0764 14.4214 17.059 14 15.9982 14V14ZM15.9982 16C16.3937 16 16.7804 16.1173 17.1093 16.3371C17.4382 16.5568 17.6945 16.8692 17.8459 17.2346C17.9973 17.6001 18.0369 18.0022 17.9597 18.3902C17.8826 18.7781 17.6921 19.1345 17.4124 19.4142C17.1327 19.6939 16.7763 19.8844 16.3883 19.9616C16.0004 20.0387 15.5983 19.9991 15.2328 19.8477C14.8673 19.6964 14.555 19.44 14.3352 19.1111C14.1155 18.7822 13.9982 18.3956 13.9982 18C13.9982 17.4696 14.2089 16.9608 14.584 16.5858C14.959 16.2107 15.4677 16 15.9982 16V16Z" fill="#E02356"/>
<path d="M42.2712 16H40.2354V4.3942H45.3336C46.5052 4.3942 47.4274 4.7422 48.1002 5.4382C48.7846 6.1342 49.1268 6.9984 49.1268 8.0308C49.1268 9.0516 48.7846 9.9158 48.1002 10.6234C47.4274 11.3194 46.5052 11.6674 45.3336 11.6674H42.2712V16ZM45.0552 9.8752C45.6352 9.8752 46.1108 9.707 46.482 9.3706C46.8532 9.0342 47.0388 8.5876 47.0388 8.0308C47.0388 7.474 46.8532 7.0274 46.482 6.691C46.1108 6.3546 45.6352 6.1864 45.0552 6.1864H42.2712V9.8752H45.0552ZM59.9531 16H57.6389L56.7863 13.7728H51.4619L50.6093 16H48.2951L52.8539 4.3942H55.3943L59.9531 16ZM56.2121 11.9806L54.1241 6.4474L52.0361 11.9806H56.2121ZM71.278 16H69.3118L63.2566 7.7176V16H61.2208V4.3942H63.3088L69.2422 12.4504V4.3942H71.278V16ZM78.5464 16H76.5106V6.1864H72.9958V4.3942H82.0612V6.1864H78.5464V16ZM91.7382 16H83.7864V4.3942H91.7382V6.1864H85.8222V9.1966H91.6164V10.9888H85.8222V14.2078H91.7382V16ZM103.503 14.521C102.39 15.6462 100.969 16.2088 99.2402 16.2088C97.5118 16.2088 96.0908 15.6462 94.9772 14.521C93.8636 13.3842 93.3068 11.9458 93.3068 10.2058C93.3068 8.4658 93.8636 7.0332 94.9772 5.908C96.0908 4.7712 97.5118 4.2028 99.2402 4.2028C100.969 4.2028 102.39 4.7712 103.503 5.908C104.617 7.0332 105.174 8.4658 105.174 10.2058C105.174 11.9458 104.617 13.3842 103.503 14.521ZM99.2402 14.3992C100.389 14.3992 101.317 14.0048 102.024 13.216C102.732 12.4156 103.086 11.4122 103.086 10.2058C103.086 8.9878 102.732 7.9844 102.024 7.1956C101.317 6.4068 100.389 6.0124 99.2402 6.0124C98.0802 6.0124 97.1464 6.4068 96.4388 7.1956C95.7428 7.9844 95.3948 8.9878 95.3948 10.2058C95.3948 11.4238 95.7428 12.4272 96.4388 13.216C97.1464 14.0048 98.0802 14.3992 99.2402 14.3992ZM117.191 16H115.225L109.169 7.7176V16H107.134V4.3942H109.222L115.155 12.4504V4.3942H117.191V16Z" fill="white"/>
<path d="M42.7845 27.1566C42.3234 27.1566 41.8928 27.0479 41.4926 26.8303C41.1011 26.6041 40.7748 26.2996 40.5138 25.9168V29.4012H40.1223V20.6968H40.5138V21.7539C40.74 21.4059 41.0576 21.1188 41.4665 20.8926C41.8754 20.6577 42.3147 20.5402 42.7845 20.5402C43.6371 20.5402 44.3201 20.8404 44.8334 21.4407C45.3467 22.041 45.6033 22.8414 45.6033 23.8419C45.6033 24.8337 45.3423 25.6341 44.8203 26.2431C44.307 26.8521 43.6284 27.1566 42.7845 27.1566ZM42.7845 26.8042C43.5327 26.8042 44.1156 26.5258 44.5332 25.969C44.9595 25.4122 45.1727 24.7032 45.1727 23.8419C45.1727 22.9806 44.9595 22.2759 44.5332 21.7278C44.1156 21.171 43.5327 20.8926 42.7845 20.8926C42.3147 20.8926 41.871 21.0144 41.4534 21.258C41.0358 21.5016 40.7226 21.7974 40.5138 22.1454V25.5253C40.7226 25.8733 41.0358 26.1735 41.4534 26.4258C41.871 26.6781 42.3147 26.8042 42.7845 26.8042ZM47.8417 27H47.4502V20.6968H47.8417V21.8452C48.4768 21.0013 49.1989 20.5794 50.008 20.5794V21.0492C49.9297 21.0405 49.8253 21.0361 49.6948 21.0361C49.3729 21.0361 49.0205 21.1666 48.6377 21.4276C48.2549 21.6886 47.9896 21.9714 47.8417 22.2759V27ZM54.0106 27.1566C53.1406 27.1566 52.4315 26.8434 51.8834 26.217C51.344 25.5819 51.0743 24.7902 51.0743 23.8419C51.0743 22.9023 51.344 22.1193 51.8834 21.4929C52.4315 20.8578 53.1406 20.5402 54.0106 20.5402C54.8893 20.5402 55.5983 20.8534 56.1377 21.4798C56.6771 22.1062 56.9468 22.8936 56.9468 23.8419C56.9468 24.7902 56.6771 25.5819 56.1377 26.217C55.5983 26.8434 54.8893 27.1566 54.0106 27.1566ZM54.0106 26.8042C54.7849 26.8042 55.3939 26.5171 55.8376 25.9429C56.29 25.36 56.5162 24.6597 56.5162 23.8419C56.5162 23.0328 56.29 22.3411 55.8376 21.7669C55.3939 21.184 54.7849 20.8926 54.0106 20.8926C53.245 20.8926 52.636 21.184 52.1836 21.7669C51.7312 22.3411 51.505 23.0328 51.505 23.8419C51.505 24.6597 51.7312 25.36 52.1836 25.9429C52.636 26.5171 53.245 26.8042 54.0106 26.8042ZM59.0519 19.6137C58.9562 19.6137 58.8692 19.5789 58.7909 19.5093C58.7126 19.431 58.6735 19.3396 58.6735 19.2352C58.6735 19.1308 58.7126 19.0438 58.7909 18.9742C58.8692 18.8959 58.9562 18.8568 59.0519 18.8568C59.1563 18.8568 59.2433 18.8959 59.3129 18.9742C59.3912 19.0438 59.4304 19.1308 59.4304 19.2352C59.4304 19.3396 59.3912 19.431 59.3129 19.5093C59.2433 19.5789 59.1563 19.6137 59.0519 19.6137ZM57.6947 29.5578C57.251 29.5578 56.8508 29.3925 56.4941 29.0619L56.7421 28.7357C57.0205 29.0489 57.338 29.2055 57.6947 29.2055C58.0427 29.2055 58.3211 29.1054 58.5299 28.9053C58.7474 28.7052 58.8562 28.4007 58.8562 27.9918V20.6968H59.2477V27.9918C59.2477 29.0358 58.73 29.5578 57.6947 29.5578ZM64.2478 27.1566C63.3343 27.1566 62.5904 26.8477 62.0162 26.23C61.442 25.6036 61.1549 24.8076 61.1549 23.8419C61.1549 22.9197 61.4377 22.141 62.0032 21.5059C62.5687 20.8621 63.2734 20.5402 64.1173 20.5402C65.0395 20.5402 65.7572 20.8578 66.2705 21.4929C66.7838 22.128 67.0405 22.911 67.0405 23.8419V23.9724H61.5986C61.616 24.7728 61.864 25.447 62.3425 25.9951C62.8297 26.5345 63.4648 26.8042 64.2478 26.8042C65.1178 26.8042 65.8486 26.4867 66.4402 25.8516L66.6751 26.0995C65.9965 26.8042 65.1874 27.1566 64.2478 27.1566ZM66.6229 23.62C66.6229 23.1937 66.5359 22.7805 66.3619 22.3803C66.1879 21.9714 65.9008 21.6234 65.5006 21.3363C65.1091 21.0405 64.6436 20.8926 64.1042 20.8926C63.3473 20.8926 62.747 21.1753 62.3033 21.7408C61.8596 22.2976 61.6247 22.924 61.5986 23.62H66.6229ZM71.5856 27.1566C70.6982 27.1566 69.9805 26.839 69.4324 26.2039C68.8843 25.5601 68.6102 24.7728 68.6102 23.8419C68.6102 22.911 68.8843 22.128 69.4324 21.4929C69.9805 20.8578 70.6982 20.5402 71.5856 20.5402C72.0728 20.5402 72.4817 20.6272 72.8123 20.8012C73.1429 20.9752 73.4518 21.2406 73.7389 21.5973L73.4518 21.8322C72.9907 21.2058 72.3773 20.8926 71.6117 20.8926C70.82 20.8926 70.1936 21.1753 69.7325 21.7408C69.2714 22.2976 69.0409 22.998 69.0409 23.8419C69.0409 24.6945 69.2714 25.4035 69.7325 25.969C70.2023 26.5258 70.8287 26.8042 71.6117 26.8042C72.3686 26.8042 72.982 26.4867 73.4518 25.8516L73.7389 26.0995C73.4518 26.4562 73.1429 26.7216 72.8123 26.8956C72.4817 27.0696 72.0728 27.1566 71.5856 27.1566ZM76.5337 27.1566C75.8203 27.1566 75.4636 26.7346 75.4636 25.8907V21.0492H74.4196V20.6968H75.4636V18.9742H75.8551V20.6968H77.134V21.0492H75.8551V25.8907C75.8551 26.4997 76.0813 26.8042 76.5337 26.8042C76.8382 26.8042 77.0862 26.6911 77.2776 26.4649L77.5125 26.7651C77.2341 27.0261 76.9078 27.1566 76.5337 27.1566Z" fill="white"/>
</svg>
