<svg width="140" height="30" viewBox="0 0 119 34" fill="none" xmlns="http://www.w3.org/2000/svg"><path d="M15.998 2a16 16 0 1 0 13.53 7.457 3.62 3.62 0 0 0 .47-1.79A3.667 3.667 0 0 0 26.331 4c-.628 0-1.245.166-1.79.48A15.957 15.957 0 0 0 15.998 2zm0 2a13.907 13.907 0 0 1 7.104 1.937 3.621 3.621 0 0 0-.437 1.73 3.667 3.667 0 0 0 3.666 3.666 3.613 3.613 0 0 0 1.74-.436A14 14 0 1 1 15.998 4zm0 4.333A9.667 9.667 0 0 0 7.425 22.47c-.28.46-.428.99-.427 1.53a3 3 0 0 0 3 3c.54 0 1.069-.148 1.53-.427a9.668 9.668 0 1 0 4.47-18.24zm0 2a7.667 7.667 0 1 1-3.166 14.647 3 3 0 0 0-3.814-3.813 7.667 7.667 0 0 1 6.98-10.834zm0 3.667a4 4 0 1 0 0 8 4 4 0 0 0 0-8zm0 2a2 2 0 1 1 0 4 2 2 0 0 1 0-4zm26.273 0h-2.036V4.394h5.099c1.171 0 2.093.348 2.766 1.044.685.696 1.027 1.56 1.027 2.593 0 1.02-.342 1.885-1.027 2.592-.673.696-1.595 1.044-2.766 1.044H42.27V16zm2.784-6.125c.58 0 1.056-.168 1.427-.504.371-.337.557-.783.557-1.34s-.186-1.004-.557-1.34c-.371-.336-.847-.505-1.427-.505h-2.784v3.69h2.784zM59.953 16H57.64l-.853-2.227h-5.324L50.609 16h-2.314l4.559-11.606h2.54L59.954 16zm-3.74-4.02l-2.089-5.533-2.088 5.534h4.176zM71.277 16h-1.966l-6.055-8.282V16H61.22V4.394h2.088l5.933 8.056V4.394h2.036V16zm7.268 0H76.51V6.186h-3.515V4.394h9.065v1.792h-3.515V16zm13.192 0h-7.952V4.394h7.952v1.792h-5.916v3.01h5.794v1.793h-5.794v3.219h5.916V16zm11.765-1.479c-1.113 1.125-2.534 1.688-4.263 1.688-1.728 0-3.15-.563-4.263-1.688-1.113-1.137-1.67-2.575-1.67-4.315 0-1.74.557-3.173 1.67-4.298 1.114-1.137 2.535-1.705 4.263-1.705 1.729 0 3.15.568 4.263 1.705 1.114 1.125 1.671 2.558 1.671 4.298 0 1.74-.557 3.178-1.671 4.315zm-4.263-.122c1.149 0 2.077-.394 2.784-1.183.708-.8 1.062-1.804 1.062-3.01 0-1.218-.354-2.222-1.062-3.01-.707-.79-1.635-1.184-2.784-1.184-1.16 0-2.094.395-2.801 1.184-.696.788-1.044 1.792-1.044 3.01 0 1.218.348 2.221 1.044 3.01.707.789 1.641 1.183 2.801 1.183zM117.191 16h-1.966l-6.056-8.282V16h-2.035V4.394h2.088l5.933 8.056V4.394h2.036V16zM42.785 27.157c-.462 0-.892-.11-1.292-.327a2.974 2.974 0 0 1-.98-.913V29.4h-.39v-8.704h.39v1.057a2.62 2.62 0 0 1 .954-.861 2.602 2.602 0 0 1 1.318-.353c.852 0 1.535.3 2.048.9.514.601.77 1.401.77 2.402 0 .992-.26 1.792-.783 2.401-.513.61-1.192.914-2.035.914zm0-.353c.748 0 1.33-.278 1.748-.835.426-.557.64-1.266.64-2.127 0-.861-.214-1.566-.64-2.114-.417-.557-1-.835-1.748-.835a2.6 2.6 0 0 0-1.332.365c-.417.244-.73.54-.94.887v3.38c.21.348.523.649.94.9.418.253.862.38 1.331.38zm5.057.196h-.392v-6.303h.392v1.148c.635-.844 1.357-1.266 2.166-1.266v.47a2.968 2.968 0 0 0-.313-.013c-.322 0-.675.13-1.057.392-.383.26-.648.543-.796.848V27zm6.169.157c-.87 0-1.58-.314-2.128-.94-.539-.635-.809-1.427-.809-2.375 0-.94.27-1.723.81-2.35.547-.634 1.257-.952 2.127-.952.878 0 1.587.313 2.127.94.54.626.809 1.414.809 2.362 0 .948-.27 1.74-.81 2.375-.539.626-1.248.94-2.126.94zm0-.353c.774 0 1.383-.287 1.827-.861.452-.583.678-1.283.678-2.101 0-.81-.226-1.5-.678-2.075-.444-.583-1.053-.874-1.827-.874-.766 0-1.375.291-1.827.874-.453.574-.679 1.266-.679 2.075 0 .818.226 1.518.679 2.1.452.575 1.061.862 1.827.862zm5.04-7.19a.376.376 0 0 1-.378-.379c0-.104.04-.191.118-.26a.362.362 0 0 1 .26-.118c.105 0 .192.039.262.117.078.07.117.157.117.261a.375.375 0 0 1-.117.274.354.354 0 0 1-.261.105zm-1.356 9.944c-.444 0-.844-.166-1.2-.496l.247-.326c.279.313.596.47.953.47.348 0 .626-.1.835-.3.217-.2.326-.505.326-.914v-7.295h.392v7.295c0 1.044-.518 1.566-1.553 1.566zm6.553-2.401c-.914 0-1.658-.31-2.232-.927-.574-.626-.861-1.422-.861-2.388 0-.922.283-1.701.848-2.336.566-.644 1.27-.966 2.114-.966.922 0 1.64.318 2.153.953.514.635.77 1.418.77 2.349v.13H61.6c.017.8.265 1.475.744 2.023.487.54 1.122.81 1.905.81.87 0 1.6-.318 2.192-.953l.235.247c-.678.705-1.488 1.058-2.427 1.058zm2.375-3.537c0-.426-.087-.84-.261-1.24a2.468 2.468 0 0 0-.861-1.044c-.392-.295-.857-.443-1.397-.443-.757 0-1.357.282-1.8.848a3.135 3.135 0 0 0-.705 1.879h5.024zm4.963 3.537c-.888 0-1.605-.318-2.154-.953-.548-.644-.822-1.431-.822-2.362s.274-1.714.822-2.35c.549-.634 1.266-.952 2.154-.952.487 0 .896.087 1.226.261.33.174.64.44.927.796l-.287.235c-.461-.626-1.075-.94-1.84-.94-.792 0-1.418.283-1.88.849-.46.557-.691 1.257-.691 2.1 0 .854.23 1.563.692 2.128.47.557 1.096.835 1.879.835.757 0 1.37-.317 1.84-.952l.287.247c-.287.357-.596.623-.927.797-.33.174-.74.26-1.226.26zm4.948 0c-.714 0-1.07-.422-1.07-1.266v-4.842H74.42v-.352h1.044v-1.723h.391v1.723h1.279v.352h-1.279v4.842c0 .609.226.913.679.913a.929.929 0 0 0 .744-.34l.234.301a1.385 1.385 0 0 1-.978.392z" fill="#fff"/></svg>